<svg width="60" height="60" viewBox="0 0 120 140" xmlns="http://www.w3.org/2000/svg" aria-label="Brasão UFPB" preserveAspectRatio="xMidYMid meet">
  <defs>
    <linearGradient id="blueShield" x1="0%" y1="0%" x2="0%" y2="100%">
      <stop offset="0%" style="stop-color:#003DA5;stop-opacity:1" />
      <stop offset="100%" style="stop-color:#001F5C;stop-opacity:1" />
    </linearGradient>
    <linearGradient id="goldAccent" x1="0%" y1="0%" x2="0%" y2="100%">
      <stop offset="0%" style="stop-color:#FFD700;stop-opacity:1" />
      <stop offset="100%" style="stop-color:#FF9500;stop-opacity:1" />
    </linearGradient>
  </defs>
  
  <!-- Main shield -->
  <path d="M 60 10 L 100 35 L 100 85 Q 60 110 60 110 Q 20 85 20 85 L 20 35 Z" 
        fill="url(#blueShield)" stroke="#000" stroke-width="1.5" stroke-linejoin="round"/>
  
  <!-- Golden border stripe -->
  <path d="M 65 45 L 95 45 Q 95 55 60 70 Q 25 55 25 45 L 55 45 Q 55 48 60 48 Q 65 48 65 45 Z" 
        fill="url(#goldAccent)" opacity="0.9"/>
  
  <!-- White/Light circle for contrast -->
  <circle cx="60" cy="48" r="18" fill="#F5F5DC" opacity="0.95"/>
  
  <!-- Book/Knowledge symbol - Open book -->
  <g>
    <!-- Left page -->
    <path d="M 48 38 L 48 58 Q 52 62 56 58 L 56 38 Z" 
          fill="none" stroke="#003DA5" stroke-width="1.2" stroke-linecap="round"/>
    <!-- Right page -->
    <path d="M 64 38 L 64 58 Q 60 62 56 58 L 56 38 Z" 
          fill="none" stroke="#003DA5" stroke-width="1.2" stroke-linecap="round"/>
    <!-- Book spine -->
    <line x1="56" y1="38" x2="56" y2="60" stroke="#003DA5" stroke-width="1.5"/>
    
    <!-- Text lines on left page -->
    <line x1="50" y1="42" x2="54" y2="42" stroke="#003DA5" stroke-width="0.7" opacity="0.7"/>
    <line x1="50" y1="46" x2="54" y2="46" stroke="#003DA5" stroke-width="0.7" opacity="0.7"/>
    <line x1="50" y1="50" x2="54" y2="50" stroke="#003DA5" stroke-width="0.7" opacity="0.7"/>
    
    <!-- Text lines on right page -->
    <line x1="58" y1="42" x2="62" y2="42" stroke="#003DA5" stroke-width="0.7" opacity="0.7"/>
    <line x1="58" y1="46" x2="62" y2="46" stroke="#003DA5" stroke-width="0.7" opacity="0.7"/>
    <line x1="58" y1="50" x2="62" y2="50" stroke="#003DA5" stroke-width="0.7" opacity="0.7"/>
  </g>
  
  <!-- Bottom banner accent -->
  <rect x="28" y="92" width="64" height="6" fill="url(#goldAccent)" opacity="0.8" rx="1"/>
  
  <!-- Stars/ornaments (top corners) -->
  <circle cx="35" cy="25" r="2" fill="#FFD700" opacity="0.8"/>
  <circle cx="85" cy="25" r="2" fill="#FFD700" opacity="0.8"/>
  
  <!-- Shield shine/highlight -->
  <ellipse cx="50" cy="30" rx="12" ry="8" fill="#FFF" opacity="0.15"/>
</svg>
